<?xml version="1.0" encoding="UTF-8"?>
<!-- Generated by IcoMoon.io -->
<!DOCTYPE svg PUBLIC "-//W3C//DTD SVG 1.1//EN" "http://www.w3.org/Graphics/SVG/1.1/DTD/svg11.dtd">
<svg version="1.1" xmlns="http://www.w3.org/2000/svg" xmlns:xlink="http://www.w3.org/1999/xlink" width="512" height="512" viewBox="0 0 512 512">
<g>
</g>
	<path d="M255.98 43.223c-117.484 0-212.756 95.263-212.756 212.787 0 117.514 95.283 212.767 212.756 212.767 117.545 0 212.798-95.262 212.798-212.767 0-117.524-95.242-212.787-212.798-212.787zM298.301 433.603h-99.021v-93.255h99.021v93.255zM292.987 304.302h-88.433c-7.209-112.456 81.244-78.356 81.726-125.931 0-20.183-17.787-27.883-35.574-27.883-22.62 0-31.232 15.381-31.232 39.895h-99.492c1.925-38.421 18.278-66.314 43.264-85.053 24.494-18.278 57.661-26.921 93.235-26.921 74.005 0 129.741 33.147 129.741 98.048 0.021 83.149-102.349 65.843-93.235 127.846z" fill="#000000"/>
</svg>