<?xml version="1.0" encoding="UTF-8"?>
<!-- Generated by IcoMoon.io -->
<!DOCTYPE svg PUBLIC "-//W3C//DTD SVG 1.1//EN" "http://www.w3.org/Graphics/SVG/1.1/DTD/svg11.dtd">
<svg version="1.1" xmlns="http://www.w3.org/2000/svg" xmlns:xlink="http://www.w3.org/1999/xlink" width="512" height="512" viewBox="0 0 512 512">
<g>
</g>
	<path d="M350.178 94.884c-70.502-70.492-184.761-70.492-255.262 0-70.492 70.503-70.492 184.781 0 255.252 60.785 60.867 154.102 69.048 223.877 24.955l94.822 94.914 56.32-56.3-94.843-94.904c44.124-69.755 35.87-163.102-24.914-223.918zM310.579 310.548c-48.62 48.599-127.447 48.599-176.025 0-48.65-48.63-48.65-127.437 0-176.025 48.578-48.681 127.406-48.681 176.025 0 48.579 48.589 48.579 127.396 0 176.025z" fill="#000000"/>
	<path d="M242.585 208.343h65.751v33.741h-65.751v-33.741z" fill="#000000"/>
	<path d="M143.032 208.343h65.792v33.741h-65.792v-33.741z" fill="#000000"/>
	<path d="M208.825 242.073h33.772v65.812h-33.772v-65.813z" fill="#000000"/>
	<path d="M208.825 142.53h33.772v65.802h-33.772v-65.802z" fill="#000000"/>
	<path d="M208.825 208.333h33.772v33.751h-33.772v-33.751z" fill="#000000"/>
</svg>