<?xml version="1.0" encoding="UTF-8"?>
<!-- Generated by IcoMoon.io -->
<!DOCTYPE svg PUBLIC "-//W3C//DTD SVG 1.1//EN" "http://www.w3.org/Graphics/SVG/1.1/DTD/svg11.dtd">
<svg version="1.1" xmlns="http://www.w3.org/2000/svg" xmlns:xlink="http://www.w3.org/1999/xlink" width="512" height="512" viewBox="0 0 512 512">
<g>
</g>
	<path d="M350.178 94.864c-70.523-70.472-184.77-70.472-255.293 0-70.451 70.533-70.451 184.791 0 255.273 60.774 60.856 154.143 69.058 223.898 24.965l94.884 94.894 56.3-56.3-94.822-94.904c44.073-69.745 35.861-163.093-24.965-223.929zM310.579 310.548c-48.62 48.599-127.488 48.599-176.056 0-48.64-48.63-48.64-127.427 0-176.036 48.569-48.681 127.437-48.681 176.056 0 48.599 48.609 48.599 127.406 0 176.036z" fill="#000000"/>
	<path d="M139.1 201.237h170.035v44.237h-170.035v-44.237z" fill="#000000"/>
</svg>