<?xml version="1.0" encoding="UTF-8" standalone="no"?>
<svg
   xmlns:dc="http://purl.org/dc/elements/1.1/"
   xmlns:cc="http://creativecommons.org/ns#"
   xmlns:rdf="http://www.w3.org/1999/02/22-rdf-syntax-ns#"
   xmlns:svg="http://www.w3.org/2000/svg"
   xmlns="http://www.w3.org/2000/svg"
   xmlns:xlink="http://www.w3.org/1999/xlink"
   xmlns:sodipodi="http://sodipodi.sourceforge.net/DTD/sodipodi-0.dtd"
   xmlns:inkscape="http://www.inkscape.org/namespaces/inkscape"
   version="1.2"
   width="24"
   height="24"
   viewBox="0 0 24 24"
   id="svg4"
   sodipodi:docname="pencil.svg"
   inkscape:version="0.92.1 r15371">
  <metadata
     id="metadata10">
    <rdf:RDF>
      <cc:Work
         rdf:about="">
        <dc:format>image/svg+xml</dc:format>
        <dc:type
           rdf:resource="http://purl.org/dc/dcmitype/StillImage" />
      </cc:Work>
    </rdf:RDF>
  </metadata>
  <defs
     id="defs8">
    <linearGradient
       inkscape:collect="always"
       id="linearGradient26">
      <stop
         style="stop-color:#ffff00;stop-opacity:1"
         offset="0"
         id="stop22" />
      <stop
         style="stop-color:#808000;stop-opacity:1"
         offset="1"
         id="stop24" />
    </linearGradient>
    <linearGradient
       inkscape:collect="always"
       xlink:href="#linearGradient26"
       id="linearGradient55"
       x1="2.6440678"
       y1="-3.7627118"
       x2="14.061"
       y2="6.7680001"
       gradientUnits="userSpaceOnUse"
       gradientTransform="translate(2.558483,9.1364322)" />
  </defs>
  <sodipodi:namedview
     pagecolor="#ffffff"
     bordercolor="#666666"
     borderopacity="1"
     objecttolerance="10"
     gridtolerance="10"
     guidetolerance="10"
     inkscape:pageopacity="0"
     inkscape:pageshadow="2"
     inkscape:window-width="1525"
     inkscape:window-height="964"
     id="namedview6"
     showgrid="false"
     inkscape:zoom="27.812867"
     inkscape:cx="10.827367"
     inkscape:cy="10.936986"
     inkscape:window-x="2102"
     inkscape:window-y="70"
     inkscape:window-maximized="0"
     inkscape:current-layer="svg4"
     inkscape:snap-bbox="true"
     inkscape:snap-smooth-nodes="true"
     inkscape:snap-object-midpoints="true" />
  <g
     id="g6195">
    <path
       style="fill:url(#linearGradient55);fill-opacity:1"
       id="path20-3"
       d="M 21,6.879 17.121,3 C 16.828,2.707 16.443,2.561 16.06,2.561 15.676,2.561 15.293,2.707 15,3 L 4.0609999,13.939 C 3.7679999,14.232 3.503,14.666 3.311,15.127 3.119,15.59 3,16.086 3,16.5 V 21 h 4.4999999 c 0.414,0 0.908,-0.119 1.371,-0.311 0.463,-0.192 0.896,-0.457 1.1890001,-0.75 L 21,9 C 21.293,8.707 21.439,8.322 21.439,7.939 21.439,7.555 21.293,7.172 21,6.879 Z"
       inkscape:connector-curvature="0" />
    <path
       inkscape:connector-curvature="0"
       d="m 3.7068049,13.586165 6.7070301,6.707031 M 16.06032,2.0607731 c -0.510736,0 -1.025736,0.1976108 -1.414063,0.5859375 L 3.7068049,13.586165 C 3.3458294,13.94714 3.0613412,14.426854 2.8493831,14.935774 2.636985,15.447963 2.4997737,15.990414 2.4997737,16.500227 v 5 h 5 c 0.5098132,0 1.0507816,-0.137407 1.5625,-0.349609 0.5114831,-0.212106 0.9909883,-0.496849 1.3515613,-0.857422 L 21.353289,9.3537418 c 0.389131,-0.3891311 0.585937,-0.9039955 0.585937,-1.4140626 0,-0.5107361 -0.197611,-1.0257358 -0.585937,-1.4140625 L 17.474382,2.6467106 C 17.085251,2.2575794 16.570387,2.0607732 16.06032,2.0607731 Z"
       style="fill:none;fill-rule:evenodd;stroke:#000000;stroke-width:1px;stroke-linecap:butt;stroke-linejoin:miter;stroke-opacity:1"
       id="path6190" />
  </g>
</svg>
