<?xml version="1.0" encoding="UTF-8" standalone="no"?>
<svg
   xmlns:dc="http://purl.org/dc/elements/1.1/"
   xmlns:cc="http://creativecommons.org/ns#"
   xmlns:rdf="http://www.w3.org/1999/02/22-rdf-syntax-ns#"
   xmlns:svg="http://www.w3.org/2000/svg"
   xmlns="http://www.w3.org/2000/svg"
   xmlns:sodipodi="http://sodipodi.sourceforge.net/DTD/sodipodi-0.dtd"
   xmlns:inkscape="http://www.inkscape.org/namespaces/inkscape"
   version="1.2"
   width="19"
   height="25"
   viewBox="0 0 19 25"
   id="svg4"
   sodipodi:docname="arrow-sync-outline.svg"
   inkscape:version="0.92.2 (5c3e80d, 2017-08-06)">
  <metadata
     id="metadata10">
    <rdf:RDF>
      <cc:Work
         rdf:about="">
        <dc:format>image/svg+xml</dc:format>
        <dc:type
           rdf:resource="http://purl.org/dc/dcmitype/StillImage" />
        <dc:title></dc:title>
      </cc:Work>
    </rdf:RDF>
  </metadata>
  <defs
     id="defs8" />
  <sodipodi:namedview
     pagecolor="#ffffff"
     bordercolor="#666666"
     borderopacity="1"
     objecttolerance="10"
     gridtolerance="10"
     guidetolerance="10"
     inkscape:pageopacity="0"
     inkscape:pageshadow="2"
     inkscape:window-width="1279"
     inkscape:window-height="975"
     id="namedview6"
     showgrid="false"
     fit-margin-top="0"
     fit-margin-left="0"
     fit-margin-right="0"
     fit-margin-bottom="0"
     inkscape:zoom="9.8333333"
     inkscape:cx="-10.432203"
     inkscape:cy="13"
     inkscape:window-x="0"
     inkscape:window-y="0"
     inkscape:window-maximized="0"
     inkscape:current-layer="svg4" />
  <path
     d="M 19,12.473 C 19,9.978 18.182,8.047 16.347,6.214 16.038,5.905 15.671,5.681 15.274,5.532 L 14.328,4.586 10.621,0.879 C 10.055,0.312 9.301,0 8.5,0 7.699,0 6.945,0.312 6.379,0.879 5.812,1.445 5.5,2.199 5.5,3 5.5,3.277 5.537,3.549 5.61,3.809 4.581,4.27 3.636,4.929 2.783,5.783 0.988,7.576 0,9.961 0,12.5 c 0,2.495 0.818,4.426 2.653,6.259 0.299,0.298 0.652,0.521 1.034,0.669 l 0.985,0.986 3.707,3.707 C 8.945,24.688 9.699,25 10.5,25 c 0.801,0 1.555,-0.312 2.121,-0.879 0.567,-0.566 0.879,-1.32 0.879,-2.121 0,-0.286 -0.04,-0.566 -0.117,-0.834 1.031,-0.461 1.978,-1.121 2.833,-1.975 C 18.012,17.397 19,15.011 19,12.473 Z"
     id="path4512"
     inkscape:connector-curvature="0" />
  <path
     d="m 9.87,19.957 1.337,1.336 c 0.391,0.391 0.391,1.023 0,1.414 C 11.012,22.902 10.756,23 10.5,23 10.244,23 9.988,22.902 9.793,22.707 L 6.086,19 9.793,15.293 C 9.988,15.098 10.244,15 10.5,15 c 0.256,0 0.512,0.098 0.707,0.293 0.391,0.391 0.391,1.023 0,1.414 L 9.96,17.954 c 1.351,-0.091 2.425,-0.59 3.428,-1.593 1.039,-1.038 1.611,-2.419 1.611,-3.888 0,-1.422 -0.401,-2.351 -1.48,-3.429 -0.391,-0.391 -0.391,-1.023 0,-1.415 0.195,-0.195 0.451,-0.293 0.708,-0.293 0.256,0 0.512,0.098 0.707,0.292 1.448,1.447 2.066,2.896 2.066,4.844 0,2.004 -0.78,3.887 -2.197,5.303 -1.39,1.39 -3.01,2.1 -4.933,2.182 z"
     id="path4510"
     style="fill:#ffffff"
     inkscape:connector-curvature="0" />
  <path
     d="M 9.104,5.018 7.793,3.707 C 7.402,3.316 7.402,2.684 7.793,2.293 7.988,2.098 8.244,2 8.5,2 8.756,2 9.012,2.098 9.207,2.293 L 12.914,6 9.207,9.707 C 9.012,9.902 8.756,10 8.5,10 8.244,10 7.988,9.902 7.793,9.707 7.402,9.316 7.402,8.684 7.793,8.293 L 9.068,7.018 C 7.703,7.104 6.62,7.602 5.612,8.611 4.572,9.65 4,11.031 4,12.5 c 0,1.422 0.401,2.351 1.48,3.429 0.391,0.391 0.391,1.023 0,1.415 -0.195,0.195 -0.452,0.293 -0.708,0.293 -0.256,0 -0.512,-0.098 -0.707,-0.292 C 2.618,15.897 2,14.448 2,12.5 2,10.496 2.78,8.613 4.197,7.197 5.579,5.814 7.19,5.104 9.104,5.018 Z"
     id="path4508"
     style="fill:#ffffff"
     inkscape:connector-curvature="0" />
  <path
     d="M 6.188,15.222 C 5.3,14.335 5,13.648 5,12.5 5,11.298 5.468,10.168 6.318,9.319 L 6.505,9.14 C 6.538,9.621 6.741,10.07 7.086,10.414 7.464,10.792 7.966,11 8.5,11 9.034,11 9.536,10.792 9.914,10.414 l 2.339,-2.339 c -0.078,0.596 0.104,1.219 0.56,1.675 0.888,0.887 1.188,1.574 1.188,2.722 0,1.202 -0.468,2.332 -1.318,3.181 l -0.188,0.181 C 12.456,15.362 12.254,14.924 11.916,14.586 11.536,14.208 11.034,14 10.5,14 9.966,14 9.464,14.208 9.086,14.586 L 6.744,16.928 C 6.833,16.323 6.651,15.686 6.188,15.222 Z"
     id="path2"
     style="fill:#ffffff"
     inkscape:connector-curvature="0" />
</svg>
