<?xml version="1.0" encoding="UTF-8" standalone="no"?>
<svg
   xmlns:dc="http://purl.org/dc/elements/1.1/"
   xmlns:cc="http://creativecommons.org/ns#"
   xmlns:rdf="http://www.w3.org/1999/02/22-rdf-syntax-ns#"
   xmlns:svg="http://www.w3.org/2000/svg"
   xmlns="http://www.w3.org/2000/svg"
   xmlns:sodipodi="http://sodipodi.sourceforge.net/DTD/sodipodi-0.dtd"
   xmlns:inkscape="http://www.inkscape.org/namespaces/inkscape"
   version="1.2"
   width="19"
   height="19"
   viewBox="0 0 19 19"
   id="svg4"
   sodipodi:docname="arrow-maximise-outline.svg"
   inkscape:version="0.92.1 r15371">
  <metadata
     id="metadata10">
    <rdf:RDF>
      <cc:Work
         rdf:about="">
        <dc:format>image/svg+xml</dc:format>
        <dc:type
           rdf:resource="http://purl.org/dc/dcmitype/StillImage" />
        <dc:title></dc:title>
      </cc:Work>
    </rdf:RDF>
  </metadata>
  <defs
     id="defs8" />
  <sodipodi:namedview
     pagecolor="#ffffff"
     bordercolor="#666666"
     borderopacity="1"
     objecttolerance="10"
     gridtolerance="10"
     guidetolerance="10"
     inkscape:pageopacity="0"
     inkscape:pageshadow="2"
     inkscape:window-width="1013"
     inkscape:window-height="649"
     id="namedview6"
     showgrid="false"
     fit-margin-top="0"
     fit-margin-left="0"
     fit-margin-right="0"
     fit-margin-bottom="0"
     inkscape:zoom="9.8333333"
     inkscape:cx="10"
     inkscape:cy="10"
     inkscape:window-x="2472"
     inkscape:window-y="372"
     inkscape:window-maximized="0"
     inkscape:current-layer="svg4" />
  <path
     d="M 17,0 H 11.757 C 10.455,0 9.356,0.838 8.942,2 H 2 v 7.061 l 0.012,0.12 C 0.845,9.591 0,10.693 0,12 v 7 h 7 c 1.311,0 2.593,-0.826 3,-2 h 7 V 9.939 L 16.988,9.819 C 18.155,9.409 19,8.307 19,7 V 0 Z"
     id="path22"
     inkscape:connector-curvature="0" />
  <path
     d="M 15,15 H 10 C 9.447,15 9,14.552 9,14 9,13.448 9.447,13 10,13 h 3 V 9.939 c 0,-0.552 0.447,-1 1,-1 0.553,0 1,0.448 1,1 z"
     id="path20"
     style="fill:#ffffff"
     inkscape:connector-curvature="0" />
  <path
     d="m 4,4 h 5.061 c 0.553,0 1,0.448 1,1 0,0.552 -0.447,1 -1,1 H 6 v 3.061 c 0,0.552 -0.448,1 -1,1 -0.553,0 -1,-0.448 -1,-1 z"
     id="path18"
     style="fill:#ffffff"
     inkscape:connector-curvature="0" />
  <path
     d="M 17,7 C 17,7.552 16.553,8 16,8 15.447,8 15,7.552 15,7 V 5.414 L 11.707,8.707 C 11.512,8.902 11.256,9 11,9 10.744,9 10.488,8.902 10.293,8.707 9.902,8.316 9.902,7.684 10.293,7.293 L 13.586,4 H 12 C 11.447,4 11,3.552 11,3 11,2.448 11.447,2 12,2 h 5 z"
     id="path16"
     style="fill:#ffffff"
     inkscape:connector-curvature="0" />
  <path
     d="M 7,17 H 2 v -5 c 0,-0.552 0.447,-1 1,-1 0.553,0 1,0.448 1,1 v 1.586 L 7.293,10.293 C 7.488,10.098 7.744,10 8,10 c 0.256,0 0.512,0.098 0.707,0.293 0.391,0.391 0.391,1.023 0,1.414 L 5.414,15 H 7 c 0.553,0 1,0.448 1,1 0,0.552 -0.448,1 -1,1 z"
     id="path14"
     style="fill:#ffffff"
     inkscape:connector-curvature="0" />
  <path
     d="M 9.414,9.586 C 9.036,9.208 8.534,9 8,9 7.633,9 7.284,9.105 6.977,9.289 L 7,9.061 V 7 H 9.061 L 9.29,6.977 C 9.104,7.284 9,7.633 9,8 9,8.534 9.208,9.036 9.586,9.414 9.964,9.792 10.466,10 11,10 11.367,10 11.716,9.895 12.023,9.711 L 12,9.939 V 12 H 10.061 C 9.939,12 9.821,12.015 9.705,12.036 9.894,11.726 10,11.372 10,11 10,10.466 9.792,9.964 9.414,9.586 Z"
     id="path2"
     style="fill:#ffffff"
     inkscape:connector-curvature="0" />
</svg>
