<?xml version="1.0" encoding="UTF-8" standalone="no"?>
<svg
   xmlns:dc="http://purl.org/dc/elements/1.1/"
   xmlns:cc="http://creativecommons.org/ns#"
   xmlns:rdf="http://www.w3.org/1999/02/22-rdf-syntax-ns#"
   xmlns:svg="http://www.w3.org/2000/svg"
   xmlns="http://www.w3.org/2000/svg"
   xmlns:sodipodi="http://sodipodi.sourceforge.net/DTD/sodipodi-0.dtd"
   xmlns:inkscape="http://www.inkscape.org/namespaces/inkscape"
   version="1.2"
   width="18.04369"
   height="18.044001"
   viewBox="0 0 18.04369 18.044001"
   id="svg4"
   sodipodi:docname="brush.svg"
   inkscape:version="0.92.2 (5c3e80d, 2017-08-06)">
  <metadata
     id="metadata10">
    <rdf:RDF>
      <cc:Work
         rdf:about="">
        <dc:format>image/svg+xml</dc:format>
        <dc:type
           rdf:resource="http://purl.org/dc/dcmitype/StillImage" />
        <dc:title></dc:title>
      </cc:Work>
    </rdf:RDF>
  </metadata>
  <defs
     id="defs8" />
  <sodipodi:namedview
     pagecolor="#ffffff"
     bordercolor="#666666"
     borderopacity="1"
     objecttolerance="10"
     gridtolerance="10"
     guidetolerance="10"
     inkscape:pageopacity="0"
     inkscape:pageshadow="2"
     inkscape:window-width="1466"
     inkscape:window-height="1049"
     id="namedview6"
     showgrid="false"
     fit-margin-top="0"
     fit-margin-left="0"
     fit-margin-right="0"
     fit-margin-bottom="0"
     inkscape:zoom="9.8333333"
     inkscape:cx="-10.651032"
     inkscape:cy="9.281"
     inkscape:window-x="0"
     inkscape:window-y="0"
     inkscape:window-maximized="0"
     inkscape:current-layer="svg4" />
  <path
     d="m 17.458171,0.586 c -0.382,-0.383 -0.894,-0.586 -1.415,-0.586 -0.25,0 -0.503,0.047 -0.744,0.144 -4.449,1.787 -7.7920001,4.76 -10.5170001,9.357 -0.102,0.172 -0.163,0.355 -0.209,0.542 -1.38,0.215 -2.6,0.903 -3.442,1.993 -0.91599997,1.185 -1.29499997,2.695 -1.06599997,4.254 l 0.216,1.473 1.47299997,0.217 c 0.293,0.043 0.589,0.064 0.88,0.064 2.743,0 4.949,-1.909 5.367,-4.564 0.188,-0.047 0.371,-0.115 0.544,-0.218 4.5980001,-2.728 7.5710001,-6.069 9.3550001,-10.517 0.298,-0.743 0.123,-1.593 -0.442,-2.159 z"
     id="path823"
     inkscape:connector-curvature="0" />
  <path
     d="m 2.6341709,16.044 c -0.192,0 -0.389,-0.016 -0.59,-0.044 -0.309,-2.104 1.055,-3.81 3,-4.021 l 1.021,1.021 c -0.192,1.76 -1.605,3.044 -3.431,3.044 z"
     id="path821"
     style="fill:#ffffff"
     inkscape:connector-curvature="0" />
  <path
     d="m 7.5241709,11.542 -1.021,-1.021 c 0.38,-0.641 0.774,-1.233 1.178,-1.804 0.027,0.041 1.639,1.653 1.639,1.653 -0.568,0.401 -1.158,0.794 -1.796,1.172 z"
     id="path819"
     style="fill:#ffffff"
     inkscape:connector-curvature="0" />
  <path
     d="m 10.132171,9.769 c 0,0 -1.8210001,-1.801 -1.8790001,-1.824 2.1470001,-2.784 4.6510001,-4.685 7.7910001,-5.943 -1.255,3.127 -3.144,5.623 -5.912,7.767 z"
     id="path2"
     style="fill:#ffffff"
     inkscape:connector-curvature="0" />
</svg>
