<?xml version="1.0" encoding="UTF-8" standalone="no"?>
<svg
   xmlns:dc="http://purl.org/dc/elements/1.1/"
   xmlns:cc="http://creativecommons.org/ns#"
   xmlns:rdf="http://www.w3.org/1999/02/22-rdf-syntax-ns#"
   xmlns:svg="http://www.w3.org/2000/svg"
   xmlns="http://www.w3.org/2000/svg"
   xmlns:sodipodi="http://sodipodi.sourceforge.net/DTD/sodipodi-0.dtd"
   xmlns:inkscape="http://www.inkscape.org/namespaces/inkscape"
   version="1.2"
   width="18"
   height="13"
   viewBox="0 0 18 13"
   id="svg4"
   sodipodi:docname="equals-outline.svg"
   inkscape:version="0.92.2 (5c3e80d, 2017-08-06)">
  <metadata
     id="metadata10">
    <rdf:RDF>
      <cc:Work
         rdf:about="">
        <dc:format>image/svg+xml</dc:format>
        <dc:type
           rdf:resource="http://purl.org/dc/dcmitype/StillImage" />
        <dc:title></dc:title>
      </cc:Work>
    </rdf:RDF>
  </metadata>
  <defs
     id="defs8" />
  <sodipodi:namedview
     pagecolor="#ffffff"
     bordercolor="#666666"
     borderopacity="1"
     objecttolerance="10"
     gridtolerance="10"
     guidetolerance="10"
     inkscape:pageopacity="0"
     inkscape:pageshadow="2"
     inkscape:window-width="1808"
     inkscape:window-height="956"
     id="namedview6"
     showgrid="false"
     fit-margin-top="0"
     fit-margin-left="0"
     fit-margin-right="0"
     fit-margin-bottom="0"
     inkscape:zoom="27.812867"
     inkscape:cx="11.322562"
     inkscape:cy="6.4061138"
     inkscape:window-x="406"
     inkscape:window-y="373"
     inkscape:window-maximized="0"
     inkscape:current-layer="svg4" />
  <path
     d="M 15,6 H 3 C 1.346,6 0,4.654 0,3 0,1.346 1.346,0 3,0 h 12 c 1.654,0 3,1.346 3,3 0,1.654 -1.346,3 -3,3 z"
     id="path823"
     inkscape:connector-curvature="0" />
  <path
     d="M 3,2 C 2.448,2 2,2.449 2,3 2,3.551 2.448,4 3,4 H 15 C 15.552,4 16,3.551 16,3 16,2.449 15.552,2 15,2 Z"
     id="path821"
     style="fill:#cccccc"
     inkscape:connector-curvature="0" />
  <path
     d="M 15,13 H 3 C 1.346,13 0,11.654 0,10 0,8.346 1.346,7 3,7 h 12 c 1.654,0 3,1.346 3,3 0,1.654 -1.346,3 -3,3 z"
     id="path819"
     inkscape:connector-curvature="0" />
  <path
     d="m 3,9 c -0.552,0 -1,0.449 -1,1 0,0.551 0.448,1 1,1 h 12 c 0.552,0 1,-0.449 1,-1 0,-0.551 -0.448,-1 -1,-1 z"
     id="path2"
     style="fill:#cccccc"
     inkscape:connector-curvature="0" />
</svg>
