<?xml version="1.0" encoding="UTF-8" standalone="no"?>
<svg
   xmlns:dc="http://purl.org/dc/elements/1.1/"
   xmlns:cc="http://creativecommons.org/ns#"
   xmlns:rdf="http://www.w3.org/1999/02/22-rdf-syntax-ns#"
   xmlns:svg="http://www.w3.org/2000/svg"
   xmlns="http://www.w3.org/2000/svg"
   xmlns:sodipodi="http://sodipodi.sourceforge.net/DTD/sodipodi-0.dtd"
   xmlns:inkscape="http://www.inkscape.org/namespaces/inkscape"
   version="1.2"
   width="14"
   height="13.97125"
   viewBox="0 0 14 13.97125"
   id="svg4"
   sodipodi:docname="times-outline.svg"
   inkscape:version="0.92.2 (5c3e80d, 2017-08-06)">
  <metadata
     id="metadata10">
    <rdf:RDF>
      <cc:Work
         rdf:about="">
        <dc:format>image/svg+xml</dc:format>
        <dc:type
           rdf:resource="http://purl.org/dc/dcmitype/StillImage" />
        <dc:title></dc:title>
      </cc:Work>
    </rdf:RDF>
  </metadata>
  <defs
     id="defs8" />
  <sodipodi:namedview
     pagecolor="#ffffff"
     bordercolor="#666666"
     borderopacity="1"
     objecttolerance="10"
     gridtolerance="10"
     guidetolerance="10"
     inkscape:pageopacity="0"
     inkscape:pageshadow="2"
     inkscape:window-width="1222"
     inkscape:window-height="728"
     id="namedview6"
     showgrid="false"
     fit-margin-top="0"
     fit-margin-left="0"
     fit-margin-right="0"
     fit-margin-bottom="0"
     inkscape:zoom="9.8333333"
     inkscape:cx="7"
     inkscape:cy="7"
     inkscape:window-x="0"
     inkscape:window-y="0"
     inkscape:window-maximized="0"
     inkscape:current-layer="svg4" />
  <path
     d="m 11,13.97125 c -0.802,0 -1.555,-0.312 -2.122,-0.879 L 7,11.21325 l -1.879,1.879 c -1.133,1.133 -3.109,1.133 -4.243,0 -0.566,-0.566 -0.878,-1.32 -0.878,-2.121 0,-0.801 0.312,-1.555 0.879,-2.122 l 1.878,-1.878 -1.878,-1.879 C 0.312,4.52625 0,3.77225 0,2.97125 c 0,-0.801 0.312,-1.555 0.879,-2.122 1.133,-1.132 3.109,-1.133 4.243,0.001 L 7,2.72925 8.879,0.85025 c 1.133,-1.133 3.109,-1.133 4.243,0 0.566,0.566 0.878,1.32 0.878,2.121 0,0.801 -0.312,1.555 -0.879,2.122 l -1.878,1.878 1.878,1.879 c 0.567,0.566 0.879,1.32 0.879,2.121 0,0.801 -0.312,1.555 -0.879,2.122 -0.566,0.566 -1.319,0.878 -2.121,0.878 z"
     id="path819"
     inkscape:connector-curvature="0" />
  <path
     d="m 7,8.38525 3.293,3.293 c 0.378,0.378 1.037,0.377 1.414,0 0.189,-0.189 0.293,-0.439 0.293,-0.707 0,-0.268 -0.104,-0.518 -0.293,-0.707 l -3.292,-3.293 3.292,-3.293 c 0.189,-0.189 0.293,-0.44 0.293,-0.707 0,-0.267 -0.104,-0.518 -0.293,-0.707 -0.378,-0.379 -1.037,-0.378 -1.414,-10e-4 L 7,5.55725 3.707,2.26425 c -0.378,-0.378 -1.037,-0.377 -1.414,0 -0.189,0.189 -0.293,0.44 -0.293,0.707 0,0.267 0.104,0.518 0.293,0.707 l 3.292,3.293 -3.292,3.293 c -0.189,0.189 -0.293,0.439 -0.293,0.707 0,0.268 0.104,0.518 0.293,0.707 0.378,0.379 1.037,0.378 1.414,10e-4 z"
     id="path2"
     style="fill:#ffffff"
     inkscape:connector-curvature="0" />
</svg>
