<?xml version="1.0" encoding="UTF-8" standalone="no"?>
<svg
   xmlns:dc="http://purl.org/dc/elements/1.1/"
   xmlns:cc="http://creativecommons.org/ns#"
   xmlns:rdf="http://www.w3.org/1999/02/22-rdf-syntax-ns#"
   xmlns:svg="http://www.w3.org/2000/svg"
   xmlns="http://www.w3.org/2000/svg"
   xmlns:sodipodi="http://sodipodi.sourceforge.net/DTD/sodipodi-0.dtd"
   xmlns:inkscape="http://www.inkscape.org/namespaces/inkscape"
   version="1.2"
   width="18"
   height="16.479"
   viewBox="0 0 18 16.479"
   id="svg4"
   sodipodi:docname="waves-outline.svg"
   inkscape:version="0.92.2 (5c3e80d, 2017-08-06)">
  <metadata
     id="metadata10">
    <rdf:RDF>
      <cc:Work
         rdf:about="">
        <dc:format>image/svg+xml</dc:format>
        <dc:type
           rdf:resource="http://purl.org/dc/dcmitype/StillImage" />
        <dc:title></dc:title>
      </cc:Work>
    </rdf:RDF>
  </metadata>
  <defs
     id="defs8" />
  <sodipodi:namedview
     pagecolor="#ffffff"
     bordercolor="#666666"
     borderopacity="1"
     objecttolerance="10"
     gridtolerance="10"
     guidetolerance="10"
     inkscape:pageopacity="0"
     inkscape:pageshadow="2"
     inkscape:window-width="1447"
     inkscape:window-height="893"
     id="namedview6"
     showgrid="false"
     fit-margin-top="0"
     fit-margin-left="0"
     fit-margin-right="0"
     fit-margin-bottom="0"
     inkscape:zoom="9.8333333"
     inkscape:cx="9.2033898"
     inkscape:cy="8.9999998"
     inkscape:window-x="0"
     inkscape:window-y="0"
     inkscape:window-maximized="0"
     inkscape:current-layer="svg4" />
  <path
     d="M 17.221,6.24 C 17.719,5.688 18,4.988 18,4.24 18,3.439 17.688,2.685 17.121,2.119 16.555,1.552 15.801,1.24 15,1.24 14.199,1.24 13.445,1.552 12.879,2.119 12.646,2.351 12.333,2.48 12,2.48 11.667,2.48 11.354,2.351 11.121,2.118 9.755,0.752 7.936,0 6,0 4.064,0 2.245,0.752 0.879,2.118 0.312,2.685 0,3.439 0,4.24 0,4.988 0.281,5.688 0.779,6.24 0.281,6.791 0,7.492 0,8.24 0,8.988 0.281,9.688 0.779,10.24 0.281,10.791 0,11.492 0,12.24 c 0,0.801 0.312,1.555 0.879,2.121 0.566,0.566 1.32,0.879 2.121,0.879 0.801,0 1.555,-0.312 2.121,-0.879 0.234,-0.233 0.545,-0.362 0.878,-0.362 0.333,0 0.646,0.129 0.88,0.363 1.367,1.365 3.185,2.117 5.121,2.117 1.937,0 3.755,-0.752 5.121,-2.118 C 17.688,13.794 18,13.041 18,12.24 18,11.492 17.719,10.792 17.221,10.24 17.719,9.688 18,8.988 18,8.24 18,7.492 17.719,6.791 17.221,6.24 Z"
     id="path823"
     inkscape:connector-curvature="0" />
  <path
     d="M 15.707,12.947 C 14.686,13.968 13.343,14.479 12,14.479 10.658,14.479 9.315,13.968 8.293,12.947 7.66,12.315 6.83,11.999 6,11.999 5.169,11.999 4.339,12.315 3.708,12.947 3.512,13.142 3.256,13.24 3,13.24 c -0.256,0 -0.512,-0.098 -0.707,-0.293 -0.391,-0.391 -0.391,-1.023 0,-1.414 1.021,-1.021 2.364,-1.532 3.706,-1.532 1.343,0 2.686,0.511 3.708,1.532 0.632,0.632 1.463,0.947 2.293,0.947 0.831,0 1.661,-0.315 2.293,-0.947 0.195,-0.195 0.451,-0.293 0.707,-0.293 0.256,0 0.512,0.098 0.707,0.293 0.391,0.39 0.391,1.023 0,1.414 z"
     id="path821"
     style="fill:#ffffff"
     inkscape:connector-curvature="0" />
  <path
     d="M 2.293,3.533 C 3.314,2.511 4.658,2 6,2 7.343,2 8.685,2.511 9.707,3.532 10.339,4.165 11.17,4.48 12,4.48 12.831,4.48 13.661,4.165 14.293,3.533 14.488,3.337 14.744,3.24 15,3.24 c 0.256,0 0.512,0.098 0.707,0.293 0.391,0.391 0.391,1.023 0,1.414 C 14.686,5.968 13.343,6.479 12,6.479 10.658,6.479 9.315,5.968 8.293,4.947 7.66,4.315 6.83,3.999 6,3.999 5.169,3.999 4.339,4.315 3.708,4.947 3.512,5.142 3.256,5.24 3,5.24 2.744,5.24 2.488,5.142 2.293,4.947 1.902,4.556 1.902,3.923 2.293,3.533 Z"
     id="path819"
     style="fill:#ffffff"
     inkscape:connector-curvature="0" />
  <path
     d="M 15.707,8.947 C 14.686,9.968 13.343,10.479 12,10.479 10.658,10.479 9.315,9.968 8.293,8.947 7.66,8.315 6.83,7.999 6,7.999 5.169,7.999 4.339,8.315 3.708,8.947 3.512,9.142 3.256,9.24 3,9.24 2.744,9.24 2.488,9.142 2.293,8.947 1.902,8.556 1.902,7.924 2.293,7.533 3.314,6.512 4.657,6.001 5.999,6.001 7.342,6.001 8.685,6.512 9.707,7.533 10.339,8.165 11.17,8.48 12,8.48 12.831,8.48 13.661,8.165 14.293,7.533 14.488,7.338 14.744,7.24 15,7.24 c 0.256,0 0.512,0.098 0.707,0.293 0.391,0.39 0.391,1.023 0,1.414 z"
     id="path2"
     style="fill:#ffffff"
     inkscape:connector-curvature="0" />
</svg>
