<?xml version="1.0" encoding="UTF-8" standalone="no"?>
<svg
   xmlns:dc="http://purl.org/dc/elements/1.1/"
   xmlns:cc="http://creativecommons.org/ns#"
   xmlns:rdf="http://www.w3.org/1999/02/22-rdf-syntax-ns#"
   xmlns:svg="http://www.w3.org/2000/svg"
   xmlns="http://www.w3.org/2000/svg"
   xmlns:sodipodi="http://sodipodi.sourceforge.net/DTD/sodipodi-0.dtd"
   xmlns:inkscape="http://www.inkscape.org/namespaces/inkscape"
   version="1.2"
   width="16.805"
   height="16.805"
   viewBox="0 0 16.805 16.805"
   id="svg4"
   sodipodi:docname="zoom-in-outline.svg"
   inkscape:version="0.92.1 r15371">
  <metadata
     id="metadata10">
    <rdf:RDF>
      <cc:Work
         rdf:about="">
        <dc:format>image/svg+xml</dc:format>
        <dc:type
           rdf:resource="http://purl.org/dc/dcmitype/StillImage" />
        <dc:title></dc:title>
      </cc:Work>
    </rdf:RDF>
  </metadata>
  <defs
     id="defs8" />
  <sodipodi:namedview
     pagecolor="#ffffff"
     bordercolor="#666666"
     borderopacity="1"
     objecttolerance="10"
     gridtolerance="10"
     guidetolerance="10"
     inkscape:pageopacity="0"
     inkscape:pageshadow="2"
     inkscape:window-width="640"
     inkscape:window-height="480"
     id="namedview6"
     showgrid="false"
     fit-margin-top="0"
     fit-margin-left="0"
     fit-margin-right="0"
     fit-margin-bottom="0"
     inkscape:zoom="9.8333333"
     inkscape:cx="8.5"
     inkscape:cy="9.305"
     inkscape:window-x="2885"
     inkscape:window-y="444"
     inkscape:window-maximized="0"
     inkscape:current-layer="svg4" />
  <path
     d="M 15.881,11.456 13.637,9.173 C 13.864,8.486 14,7.761 14,7 14,3.141 10.859,0 7,0 3.141,0 0,3.141 0,7 c 0,3.859 3.141,7 7,7 0.762,0 1.488,-0.137 2.173,-0.364 l 2.397,2.386 c 0.601,0.506 1.348,0.783 2.104,0.783 1.727,0 3.131,-1.404 3.131,-3.131 0,-0.84 -0.328,-1.628 -0.924,-2.218 z"
     id="path16"
     inkscape:connector-curvature="0" />
  <path
     d="M 2,7 C 2,4.243 4.243,2 7,2 9.757,2 12,4.243 12,7 12,9.757 9.757,12 7,12 4.243,12 2,9.757 2,7 Z"
     id="path2"
     style="fill:#ffffff"
     inkscape:connector-curvature="0" />
  <path
     d="m 9.5,6.5 h -2 v -2 C 7.5,4.225 7.275,4 7,4 6.725,4 6.5,4.225 6.5,4.5 v 2 h -2 C 4.225,6.5 4,6.725 4,7 4,7.275 4.225,7.5 4.5,7.5 h 2 v 2 C 6.5,9.775 6.725,10 7,10 7.275,10 7.5,9.775 7.5,9.5 v -2 h 2 C 9.775,7.5 10,7.275 10,7 10,6.725 9.775,6.5 9.5,6.5 Z"
     id="path18"
     inkscape:connector-curvature="0" />
  <path
     d="m 11.98,10.346 2.492,2.531 c 0.205,0.203 0.332,0.486 0.332,0.797 0,0.625 -0.507,1.131 -1.131,1.131 -0.312,0 -0.594,-0.127 -0.816,-0.313 l -2.512,-2.511 c 0.646,-0.436 1.201,-0.991 1.635,-1.635 z"
     id="path14"
     style="fill:#ffffff"
     inkscape:connector-curvature="0" />
</svg>
