<?xml version="1.0" encoding="UTF-8" standalone="no"?>
<svg version="1.2" baseProfile="tiny" xmlns="http://www.w3.org/2000/svg" width="24" height="24" viewBox="0 0 24 24">
  <path
     style="fill-opacity:1;fill:#323232"
     d="M 21.561,5.318 18.682,2.439 C 18.389,2.146 18.005,2 17.621,2 17.236,2 16.853,2.146 16.56,2.439 L 13,6 H 4 C 3.448,6 3,6.447 3,7 v 13 c 0,0.553 0.448,1 1,1 h 13 c 0.552,0 1,-0.447 1,-1 V 11 L 21.561,7.439 C 21.854,7.146 22,6.762 22,6.378 22,5.994 21.854,5.611 21.561,5.318 Z"
     id="path2" />
  <path
     style="fill-opacity:1;fill:#ffffff"
     d="M 18.5,7.672 16.328,5.5 17.621,4.207 19.792,6.379 Z"
     id="path4543" />
  <path
     style="fill-opacity:1;fill:#ffffff"
     d="M 16,19 H 5 V 8 h 6 L 7.82,11.18 C 7.527,11.473 7.342,11.992 7.191,12.469 7.031,12.969 7,13.525 7,13.939 V 17 h 3.061 c 0.414,0 1.108,-0.1 1.571,-0.29 0.464,-0.19 0.896,-0.347 1.188,-0.64 L 16,13 Z"
     id="path4541" />
  <path
     style="fill-opacity:1;fill:#ffffff"
     d="M 8.939,13.333 10.695,15.061 9,15 Z"
     id="path4539" />
  <path
     style="fill-opacity:1;fill:#ffffff"
     d="M 11.5,14.672 9.328,12.5 15.621,6.207 17.793,8.379 Z"
     id="path4537" />
</svg>
