<?xml version="1.0" encoding="UTF-8" standalone="no"?>
<svg
   xmlns:dc="http://purl.org/dc/elements/1.1/"
   xmlns:cc="http://creativecommons.org/ns#"
   xmlns:rdf="http://www.w3.org/1999/02/22-rdf-syntax-ns#"
   xmlns:svg="http://www.w3.org/2000/svg"
   xmlns="http://www.w3.org/2000/svg"
   xmlns:sodipodi="http://sodipodi.sourceforge.net/DTD/sodipodi-0.dtd"
   xmlns:inkscape="http://www.inkscape.org/namespaces/inkscape"
   version="1.2"
   width="18.438999"
   height="18.438999"
   viewBox="0 0 18.438999 18.438999"
   id="svg4"
   sodipodi:docname="pencil.svg"
   inkscape:version="0.92.2 (5c3e80d, 2017-08-06)">
  <metadata
     id="metadata10">
    <rdf:RDF>
      <cc:Work
         rdf:about="">
        <dc:format>image/svg+xml</dc:format>
        <dc:type
           rdf:resource="http://purl.org/dc/dcmitype/StillImage" />
        <dc:title></dc:title>
      </cc:Work>
    </rdf:RDF>
  </metadata>
  <defs
     id="defs8" />
  <sodipodi:namedview
     pagecolor="#ffffff"
     bordercolor="#666666"
     borderopacity="1"
     objecttolerance="10"
     gridtolerance="10"
     guidetolerance="10"
     inkscape:pageopacity="0"
     inkscape:pageshadow="2"
     inkscape:window-width="1499"
     inkscape:window-height="1028"
     id="namedview6"
     showgrid="false"
     fit-margin-top="0"
     fit-margin-left="0"
     fit-margin-right="0"
     fit-margin-bottom="0"
     inkscape:zoom="27.812867"
     inkscape:cx="9.4907385"
     inkscape:cy="5.9041107"
     inkscape:window-x="787"
     inkscape:window-y="176"
     inkscape:window-maximized="0"
     inkscape:current-layer="svg4" />
  <path
     d="M 18,4.318 14.121,0.439 C 13.828,0.146 13.443,0 13.06,0 12.676,0 12.293,0.146 12,0.439 L 1.061,11.378 C 0.768,11.671 0.503,12.105 0.311,12.566 0.119,13.029 0,13.525 0,13.939 v 4.5 h 4.5 c 0.414,0 0.908,-0.119 1.371,-0.311 0.463,-0.192 0.896,-0.457 1.189,-0.75 L 18,6.439 C 18.293,6.146 18.439,5.761 18.439,5.378 18.439,4.994 18.293,4.611 18,4.318 Z"
     id="path825"
     inkscape:connector-curvature="0" />
  <path
     d="M 2.768,12.5 11.061,4.207 12.293,5.439 4,13.732 Z"
     id="path823"
     style="fill:#ffffff"
     inkscape:connector-curvature="0" />
  <path
     d="M 4.5,16.439 H 3 l -1,-1 v -1.5 c 0,-0.077 0.033,-0.305 0.158,-0.605 0.01,-0.02 2.967,2.938 2.967,2.938 -0.322,0.134 -0.548,0.167 -0.625,0.167 z"
     id="path821"
     style="fill:#ffffff"
     inkscape:connector-curvature="0" />
  <path
     d="M 5.939,15.671 4.707,14.439 13,6.146 14.232,7.378 Z"
     id="path819"
     style="fill:#ffffff"
     inkscape:connector-curvature="0" />
  <path
     d="M 14.939,6.671 11.767,3.499 13.06,2.206 16.23,5.378 Z"
     id="path2"
     style="fill:#ffffff"
     inkscape:connector-curvature="0" />
</svg>
